<?xml version="1.0" encoding="utf-8"?>
<!-- Generator: Adobe Illustrator 16.0.4, SVG Export Plug-In . SVG Version: 6.00 Build 0)  -->
<svg version="1.2" baseProfile="tiny" id="Layer_1" xmlns="http://www.w3.org/2000/svg" xmlns:xlink="http://www.w3.org/1999/xlink"
	 x="0px" y="0px" width="600px" height="100px" viewBox="0 0 600 100" xml:space="preserve">
<g>
	<path fill="#E10000" d="M64.428,31.279V16.537h8.103v36.594h-8.103v-15.16H27.834v15.16h-8.103V16.537h8.103v14.742H64.428z"/>
	<path fill="#E10000" d="M85.242,53.131V16.537h8.103v36.594H85.242z"/>
	<path fill="#E10000" d="M156.679,23.124h-23.368v30.007h-8.103V23.124h-23.368v-6.587h54.838V23.124z"/>
	<path fill="#E10000" d="M167.085,47.485c-3.189-3.189-4.757-7.632-4.757-12.651s1.568-9.462,4.757-12.651
		c3.45-3.45,10.456-6.482,23.315-6.482c10.298,0,17.983,2.144,22.427,4.601v7.528c-5.228-3.084-13.435-5.594-22.375-5.594
		c-8.992,0-14.637,1.83-17.042,4.234c-1.935,1.934-2.928,4.601-2.928,8.364c0,3.764,1.045,6.326,2.98,8.26
		c2.405,2.405,7.946,4.339,16.938,4.339c8.939,0,17.199-2.3,22.427-5.228v7.162c-4.444,2.457-12.128,4.6-22.427,4.6
		C177.541,53.967,170.536,50.935,167.085,47.485z"/>
	<path fill="#E10000" d="M274.246,22.026c3.188,3.189,4.757,7.267,4.757,12.808c0,5.542-1.516,9.567-4.757,12.808
		c-3.503,3.503-10.351,6.534-24.047,6.534s-20.545-3.031-23.995-6.481c-3.293-3.293-4.81-7.319-4.81-12.86
		c0-5.541,1.516-9.566,4.757-12.808c3.555-3.555,10.403-6.535,24.047-6.535C263.895,15.492,270.743,18.524,274.246,22.026z
		 M232.633,26.261c-2.039,2.039-3.084,4.443-3.084,8.573s1.098,6.43,3.189,8.521c2.3,2.3,7.528,4.444,17.46,4.444
		c9.88,0,15.16-1.987,17.617-4.444c1.934-1.934,3.032-4.391,3.032-8.521s-1.203-6.535-3.137-8.469
		c-2.457-2.457-7.632-4.496-17.513-4.496S235.038,23.856,232.633,26.261z"/>
	<path fill="#E10000" d="M334.126,46.074V16.537h8.051v36.594h-11.345l-33.457-30.059v30.059h-8.051V16.537h11.919L334.126,46.074z"
		/>
	<path fill="#E10000" d="M404.652,15.492c10.611,0,16.153,1.882,18.662,4.391c1.935,1.935,2.614,4.025,2.614,7.058
		c0,2.562-0.889,4.391-2.3,5.803c-2.562,2.562-5.698,3.659-20.284,6.168c-8.729,1.516-13.435,3.032-15.787,5.384
		c-0.627,0.627-1.202,1.412-1.516,2.248h39.364v6.587h-49.141c0.262-4.966,1.726-9.096,4.758-12.128
		c3.815-3.816,10.193-6.43,20.492-8.208c10.612-1.83,14.271-2.667,15.631-4.025c0.574-0.575,0.784-1.203,0.784-2.196
		s-0.314-1.777-0.837-2.3c-1.464-1.464-5.176-2.405-12.39-2.405c-10.037,0-18.14,2.039-25.563,5.28v-7.005
		C385.728,17.269,393.674,15.492,404.652,15.492z"/>
	<path fill="#E10000" d="M485.585,47.642c-3.45,3.45-10.037,6.534-23.473,6.534c-13.435,0-20.074-3.136-23.524-6.586
		c-3.188-3.188-4.81-7.318-4.81-12.755c0-5.437,1.621-9.619,4.81-12.808c3.503-3.502,10.09-6.535,23.524-6.535
		c13.436,0,20.022,3.084,23.473,6.535c3.188,3.189,4.809,7.371,4.809,12.808C490.394,40.271,488.773,44.453,485.585,47.642z
		 M479.05,26.104c-2.457-2.457-7.371-4.287-16.938-4.287S447.475,23.595,445.07,26c-2.039,2.039-3.084,4.757-3.084,8.834
		s1.202,6.744,3.136,8.678c2.353,2.353,7.424,4.339,16.99,4.339s14.533-1.725,16.99-4.182c2.038-2.039,3.084-4.757,3.084-8.835
		S481.089,28.143,479.05,26.104z"/>
	<path fill="#E10000" d="M497.48,22.549l12.494-6.116h9.671v36.698h-8.103V23.385l-14.062,6.849V22.549z"/>
	<path fill="#E10000" d="M554.992,15.701c12.441,0,18.453,1.568,21.381,4.496c1.621,1.621,2.405,3.293,2.405,5.959
		c0,1.934-0.575,3.868-2.039,5.332s-3.188,2.457-5.96,3.032c3.032,0.575,4.914,1.516,6.378,2.979c1.15,1.15,2.144,3.084,2.144,5.333
		c0,2.195-0.627,4.339-2.353,6.064c-3.816,3.816-10.455,5.07-21.956,5.07c-8.939,0-19.238-1.62-23.942-3.45v-6.639
		c5.437,2.196,15.474,3.711,23.942,3.711c8.887,0,13.33-0.522,15.107-2.3c0.68-0.68,0.994-1.516,0.994-2.614
		c0-1.046-0.314-1.935-1.046-2.667c-1.621-1.621-5.019-2.195-12.756-2.195h-20.126v-6.43h19.656c8.312,0,11.344-0.471,12.859-1.986
		c0.575-0.575,0.941-1.464,0.941-2.353c0-1.098-0.262-1.882-0.889-2.509c-1.621-1.621-5.698-2.457-14.742-2.457
		c-8.312,0-18.61,1.725-23.838,4.078v-7.005C535.754,17.374,546.053,15.701,554.992,15.701z"/>
</g>
<g>
	<path fill="#85A5E9" d="M22.12,77.84c-1.22-1.221-1.8-2.921-1.8-4.842c0-1.92,0.58-3.62,1.8-4.841c1.32-1.32,3.881-2.48,8.962-2.48
		c3.921,0,7.162,0.92,8.862,1.74v1.221c-2-1.061-5.361-1.9-8.862-1.9c-2.98,0-6.321,0.42-8.042,2.141c-1,1-1.46,2.4-1.46,4.12
		c0,1.721,0.46,3.121,1.46,4.102c1.72,1.72,5.061,2.16,8.042,2.16c3.501,0,6.861-0.82,8.862-1.86v1.181
		c-1.7,0.819-4.941,1.74-8.862,1.74C26,80.32,23.44,79.16,22.12,77.84z"/>
	<path fill="#85A5E9" d="M53.461,73.238l8.782-7.241h1.7v0.02l-9.902,8.162V80h-1.22v-5.821l-9.902-8.162v-0.02h1.74L53.461,73.238z
		"/>
	<path fill="#85A5E9" d="M67.919,65.997h11.522c3.561,0,5.441,0.32,6.582,1.44c0.64,0.64,0.82,1.34,0.82,2.181
		c0,1.62-0.98,2.82-3.621,3.28c2.701,0.36,3.901,1.48,3.901,3.36c0,0.721-0.26,1.601-0.9,2.241c-1.181,1.18-3.461,1.5-6.782,1.5
		H67.919V65.997z M79.342,67.058H69.14v5.341h10.402c3.421,0,4.661-0.38,5.441-1.16c0.38-0.4,0.6-0.88,0.6-1.5
		c0-0.581-0.14-1.121-0.58-1.561C84.103,67.277,82.603,67.058,79.342,67.058z M79.562,73.438H69.14v5.521h10.342
		c3.221,0,4.781-0.2,5.721-1.141c0.5-0.5,0.64-1.06,0.64-1.62c0-0.641-0.14-1.16-0.58-1.62
		C84.263,73.579,82.042,73.438,79.562,73.438z"/>
	<path fill="#85A5E9" d="M110.123,72.398v1.04H93.839v5.501h16.563V80H92.599V65.997h17.804v1.061H93.839v5.341H110.123z"/>
	<path fill="#85A5E9" d="M127.102,65.997c4.161,0,5.501,0.48,6.421,1.38c0.76,0.761,1.081,1.74,1.081,2.921s-0.32,2.141-1.081,2.9
		c-0.86,0.86-2.26,1.501-6.141,1.521l8.842,5.222V80h-1.94l-8.842-5.281h-8.402V80h-1.24V65.997H127.102z M117.04,73.679h10.042
		c3.441,0,4.781-0.46,5.521-1.2c0.52-0.521,0.76-1.24,0.76-2.16c0-0.9-0.24-1.641-0.8-2.201c-0.74-0.74-2.021-1.06-5.461-1.06
		H117.04V73.679z"/>
	<path fill="#85A5E9" d="M155.562,67.237l-6.861,12.843h-1.681l-8.282-14.083h1.42L147.88,79.3l7.042-13.203h1.32l7.461,13.203
		l7.442-13.303h1.36l-7.981,14.083h-1.681L155.562,67.237z"/>
	<path fill="#85A5E9" d="M197.563,80h-1.44l-2.78-3.741H179.12L176.359,80h-1.38l10.442-14.083h1.7L197.563,80z M179.9,75.199
		h12.663l-6.321-8.542L179.9,75.199z"/>
	<path fill="#85A5E9" d="M213.281,65.997c4.161,0,5.501,0.48,6.421,1.38c0.76,0.761,1.081,1.74,1.081,2.921s-0.32,2.141-1.081,2.9
		c-0.86,0.86-2.26,1.501-6.141,1.521l8.842,5.222V80h-1.94l-8.842-5.281h-8.402V80h-1.24V65.997H213.281z M203.219,73.679h10.042
		c3.441,0,4.781-0.46,5.521-1.2c0.52-0.521,0.76-1.24,0.76-2.16c0-0.9-0.24-1.641-0.8-2.201c-0.74-0.74-2.021-1.06-5.461-1.06
		h-10.062V73.679z"/>
	<path fill="#85A5E9" d="M223.298,85.062l4.681-6.622h1.5l-4.901,6.622H223.298z"/>
	<path fill="#85A5E9" d="M244.459,80V65.997h1.22V80H244.459z"/>
	<path fill="#85A5E9" d="M270.922,78.92V65.997h1.22V80h-1.74l-16.624-12.982V80h-1.24V65.997h1.8L270.922,78.92z"/>
	<path fill="#85A5E9" d="M305.963,72.378v-6.381h1.24V80h-1.24v-6.541h-16.904V80h-1.24V65.997h1.24v6.381H305.963z"/>
	<path fill="#85A5E9" d="M334.203,80h-1.44l-2.781-3.741h-14.223L312.998,80h-1.381l10.443-14.083h1.7L334.203,80z M316.539,75.199
		h12.662l-6.321-8.542L316.539,75.199z"/>
	<path fill="#85A5E9" d="M339.259,77.84c-1.221-1.221-1.801-2.921-1.801-4.842c0-1.92,0.58-3.62,1.801-4.841
		c1.32-1.32,3.881-2.48,8.962-2.48c3.92,0,7.161,0.92,8.861,1.74v1.221c-2-1.061-5.361-1.9-8.861-1.9
		c-2.981,0-6.322,0.42-8.042,2.141c-1,1-1.461,2.4-1.461,4.12c0,1.721,0.461,3.121,1.461,4.102c1.72,1.72,5.061,2.16,8.042,2.16
		c3.5,0,6.861-0.82,8.861-1.86v1.181c-1.7,0.819-4.941,1.74-8.861,1.74C343.14,80.32,340.579,79.16,339.259,77.84z"/>
	<path fill="#85A5E9" d="M363.998,65.997v6.381h4.521l10.643-6.381h1.94v0.02l-11.522,6.902l11.723,7.062V80h-2.04l-10.803-6.541
		h-4.461V80h-1.221V65.997H363.998z"/>
	<path fill="#85A5E9" d="M409.86,67.237l-6.861,12.843h-1.68l-8.282-14.083h1.42l7.722,13.303l7.042-13.203h1.32l7.462,13.203
		l7.441-13.303h1.36l-7.982,14.083h-1.68L409.86,67.237z"/>
	<path fill="#85A5E9" d="M448.861,72.398v1.04h-16.283v5.501h16.563V80h-17.804V65.997h17.804v1.061h-16.563v5.341H448.861z"/>
	<path fill="#85A5E9" d="M482.562,67.058h-9.802V80h-1.241V67.058h-9.802v-1.061h20.845V67.058z"/>
	<path fill="#85A5E9" d="M498.34,65.997c4.16,0,5.501,0.48,6.421,1.38c0.761,0.761,1.08,1.74,1.08,2.921s-0.319,2.141-1.08,2.9
		c-0.86,0.86-2.261,1.501-6.142,1.521l8.843,5.222V80h-1.94l-8.842-5.281h-8.402V80h-1.24V65.997H498.34z M488.277,73.679h10.042
		c3.441,0,4.781-0.46,5.521-1.2c0.521-0.521,0.76-1.24,0.76-2.16c0-0.9-0.239-1.641-0.8-2.201c-0.74-0.74-2.021-1.06-5.461-1.06
		h-10.062V73.679z"/>
	<path fill="#85A5E9" d="M528.36,77.38c1.021-1.041,1.261-2.361,1.261-3.821v-7.562h1.24v7.802c0,2.04-0.5,3.301-1.541,4.341
		c-1.22,1.2-3.42,2.181-8.161,2.181c-4.761,0-6.962-0.98-8.162-2.181c-1.04-1.04-1.54-2.301-1.54-4.341v-7.802h1.22v7.562
		c0,1.46,0.24,2.78,1.28,3.821c1.121,1.1,3.102,1.88,7.202,1.88C525.24,79.26,527.24,78.479,528.36,77.38z"/>
	<path fill="#85A5E9" d="M552.98,77.899c0.48-0.479,0.64-1.08,0.64-1.681c0-0.58-0.1-1.12-0.52-1.56
		c-0.561-0.561-1.78-0.98-7.622-1.24c-5.581-0.28-7.481-0.761-8.342-1.621c-0.52-0.54-0.76-1.28-0.76-2.08
		c0-0.86,0.24-1.7,0.88-2.341c0.96-0.96,3.061-1.66,7.742-1.66c3.78,0,6.901,0.66,8.762,1.301v1.12
		c-2.2-0.78-5.461-1.381-8.762-1.381c-4.381,0-6.042,0.54-6.782,1.28c-0.399,0.4-0.58,0.961-0.58,1.601c0,0.62,0.181,1.08,0.521,1.4
		c0.641,0.64,2.221,1.021,7.582,1.28c6.141,0.3,7.521,0.78,8.361,1.62c0.58,0.58,0.761,1.381,0.761,2.201
		c0,0.84-0.24,1.76-0.881,2.4c-0.82,0.819-2.5,1.74-8.182,1.74c-4.101,0-7.661-0.681-9.922-1.601v-1.12
		c2.221,0.92,6.161,1.7,9.962,1.7C550.94,79.26,552.38,78.5,552.98,77.899z"/>
	<path fill="#85A5E9" d="M579.061,67.058h-9.803V80h-1.24V67.058h-9.802v-1.061h20.845V67.058z"/>
</g>
</svg>
